<mxfile host="app.diagrams.net" modified="2024-02-22T06:11:41.852Z" agent="Mozilla/5.0 (Windows NT 10.0; Win64; x64) AppleWebKit/537.36 (KHTML, like Gecko) Chrome/121.0.0.0 Safari/537.36" etag="Jz4VT3LPMsBXRQDjmB08" version="23.1.4" type="device">
  <diagram name="Страница — 1" id="kH6wvfYEm8UDJVgv0f3P">
    <mxGraphModel dx="3027" dy="975" grid="1" gridSize="10" guides="1" tooltips="1" connect="1" arrows="1" fold="1" page="1" pageScale="1" pageWidth="1169" pageHeight="827" math="0" shadow="0">
      <root>
        <mxCell id="0" />
        <mxCell id="1" parent="0" />
        <mxCell id="6Kd2W-e_VP1WlN8fFpik-17" style="edgeStyle=orthogonalEdgeStyle;rounded=0;orthogonalLoop=1;jettySize=auto;html=1;" edge="1" parent="1" source="6Kd2W-e_VP1WlN8fFpik-1" target="6Kd2W-e_VP1WlN8fFpik-11">
          <mxGeometry relative="1" as="geometry" />
        </mxCell>
        <mxCell id="6Kd2W-e_VP1WlN8fFpik-20" style="edgeStyle=orthogonalEdgeStyle;rounded=0;orthogonalLoop=1;jettySize=auto;html=1;entryX=0.5;entryY=1;entryDx=0;entryDy=0;" edge="1" parent="1" source="6Kd2W-e_VP1WlN8fFpik-1" target="6Kd2W-e_VP1WlN8fFpik-19">
          <mxGeometry relative="1" as="geometry" />
        </mxCell>
        <mxCell id="6Kd2W-e_VP1WlN8fFpik-26" style="edgeStyle=orthogonalEdgeStyle;rounded=0;orthogonalLoop=1;jettySize=auto;html=1;entryX=1;entryY=0.5;entryDx=0;entryDy=0;" edge="1" parent="1" source="6Kd2W-e_VP1WlN8fFpik-1" target="6Kd2W-e_VP1WlN8fFpik-24">
          <mxGeometry relative="1" as="geometry">
            <Array as="points">
              <mxPoint x="300" y="620" />
              <mxPoint x="537" y="620" />
            </Array>
          </mxGeometry>
        </mxCell>
        <mxCell id="6Kd2W-e_VP1WlN8fFpik-38" style="edgeStyle=orthogonalEdgeStyle;rounded=0;orthogonalLoop=1;jettySize=auto;html=1;entryX=0.5;entryY=1;entryDx=0;entryDy=0;" edge="1" parent="1" source="6Kd2W-e_VP1WlN8fFpik-1" target="6Kd2W-e_VP1WlN8fFpik-36">
          <mxGeometry relative="1" as="geometry" />
        </mxCell>
        <mxCell id="6Kd2W-e_VP1WlN8fFpik-1" value="1&lt;br&gt;Администратор" style="rounded=0;whiteSpace=wrap;html=1;" vertex="1" parent="1">
          <mxGeometry x="240" y="680" width="120" height="60" as="geometry" />
        </mxCell>
        <mxCell id="6Kd2W-e_VP1WlN8fFpik-13" style="edgeStyle=orthogonalEdgeStyle;rounded=0;orthogonalLoop=1;jettySize=auto;html=1;entryX=0;entryY=0.5;entryDx=0;entryDy=0;" edge="1" parent="1" source="6Kd2W-e_VP1WlN8fFpik-2" target="6Kd2W-e_VP1WlN8fFpik-12">
          <mxGeometry relative="1" as="geometry" />
        </mxCell>
        <mxCell id="6Kd2W-e_VP1WlN8fFpik-22" style="edgeStyle=orthogonalEdgeStyle;rounded=0;orthogonalLoop=1;jettySize=auto;html=1;entryX=0.5;entryY=0;entryDx=0;entryDy=0;" edge="1" parent="1" source="6Kd2W-e_VP1WlN8fFpik-2" target="6Kd2W-e_VP1WlN8fFpik-19">
          <mxGeometry relative="1" as="geometry" />
        </mxCell>
        <mxCell id="6Kd2W-e_VP1WlN8fFpik-32" style="edgeStyle=orthogonalEdgeStyle;rounded=0;orthogonalLoop=1;jettySize=auto;html=1;entryX=0;entryY=0.5;entryDx=0;entryDy=0;" edge="1" parent="1" source="6Kd2W-e_VP1WlN8fFpik-2" target="6Kd2W-e_VP1WlN8fFpik-41">
          <mxGeometry relative="1" as="geometry">
            <Array as="points">
              <mxPoint x="120" y="454" />
            </Array>
          </mxGeometry>
        </mxCell>
        <mxCell id="6Kd2W-e_VP1WlN8fFpik-34" style="edgeStyle=orthogonalEdgeStyle;rounded=0;orthogonalLoop=1;jettySize=auto;html=1;entryX=0;entryY=0.5;entryDx=0;entryDy=0;" edge="1" parent="1" source="6Kd2W-e_VP1WlN8fFpik-2" target="6Kd2W-e_VP1WlN8fFpik-33">
          <mxGeometry relative="1" as="geometry" />
        </mxCell>
        <mxCell id="6Kd2W-e_VP1WlN8fFpik-2" value="2&lt;br&gt;Студент" style="rounded=0;whiteSpace=wrap;html=1;" vertex="1" parent="1">
          <mxGeometry x="60" y="80" width="120" height="60" as="geometry" />
        </mxCell>
        <mxCell id="6Kd2W-e_VP1WlN8fFpik-31" style="edgeStyle=orthogonalEdgeStyle;rounded=0;orthogonalLoop=1;jettySize=auto;html=1;entryX=0.5;entryY=0;entryDx=0;entryDy=0;" edge="1" parent="1" source="6Kd2W-e_VP1WlN8fFpik-3" target="6Kd2W-e_VP1WlN8fFpik-7">
          <mxGeometry relative="1" as="geometry" />
        </mxCell>
        <mxCell id="6Kd2W-e_VP1WlN8fFpik-3" value="Подсистема подсчета баллов" style="shape=process;whiteSpace=wrap;html=1;backgroundOutline=1;size=0.2222222222222222;direction=south;" vertex="1" parent="1">
          <mxGeometry x="214" y="246" width="130" height="90" as="geometry" />
        </mxCell>
        <mxCell id="6Kd2W-e_VP1WlN8fFpik-6" value="Просмотр баллов" style="text;html=1;align=center;verticalAlign=middle;whiteSpace=wrap;rounded=0;" vertex="1" parent="1">
          <mxGeometry x="120" y="260" width="80" height="40" as="geometry" />
        </mxCell>
        <mxCell id="6Kd2W-e_VP1WlN8fFpik-15" style="edgeStyle=orthogonalEdgeStyle;rounded=0;orthogonalLoop=1;jettySize=auto;html=1;entryX=0.5;entryY=0;entryDx=0;entryDy=0;" edge="1" parent="1" source="6Kd2W-e_VP1WlN8fFpik-12" target="6Kd2W-e_VP1WlN8fFpik-11">
          <mxGeometry relative="1" as="geometry" />
        </mxCell>
        <mxCell id="6Kd2W-e_VP1WlN8fFpik-12" value="Подсистема подачи заявления" style="shape=process;whiteSpace=wrap;html=1;backgroundOutline=1;size=0.2222222222222222;direction=south;" vertex="1" parent="1">
          <mxGeometry x="-160" y="210" width="130" height="90" as="geometry" />
        </mxCell>
        <mxCell id="6Kd2W-e_VP1WlN8fFpik-14" value="Заявление на заселение" style="text;html=1;align=center;verticalAlign=middle;whiteSpace=wrap;rounded=0;" vertex="1" parent="1">
          <mxGeometry x="-60" y="120" width="90" height="40" as="geometry" />
        </mxCell>
        <mxCell id="6Kd2W-e_VP1WlN8fFpik-16" value="Заявление на заселение" style="text;html=1;align=center;verticalAlign=middle;whiteSpace=wrap;rounded=0;" vertex="1" parent="1">
          <mxGeometry x="-90" y="320" width="90" height="40" as="geometry" />
        </mxCell>
        <mxCell id="6Kd2W-e_VP1WlN8fFpik-18" value="Просмотр заявлений на заселение" style="text;html=1;align=center;verticalAlign=middle;whiteSpace=wrap;rounded=0;" vertex="1" parent="1">
          <mxGeometry x="-90" y="530" width="80" height="30" as="geometry" />
        </mxCell>
        <mxCell id="6Kd2W-e_VP1WlN8fFpik-19" value="Новости" style="rounded=0;whiteSpace=wrap;html=1;" vertex="1" parent="1">
          <mxGeometry x="673" y="390" width="120" height="60" as="geometry" />
        </mxCell>
        <mxCell id="6Kd2W-e_VP1WlN8fFpik-21" value="Публикация&lt;br&gt;новостей" style="text;html=1;align=center;verticalAlign=middle;whiteSpace=wrap;rounded=0;" vertex="1" parent="1">
          <mxGeometry x="653" y="530" width="60" height="30" as="geometry" />
        </mxCell>
        <mxCell id="6Kd2W-e_VP1WlN8fFpik-23" value="Просмотр новостей" style="text;html=1;align=center;verticalAlign=middle;whiteSpace=wrap;rounded=0;" vertex="1" parent="1">
          <mxGeometry x="663" y="230" width="60" height="30" as="geometry" />
        </mxCell>
        <mxCell id="6Kd2W-e_VP1WlN8fFpik-28" style="edgeStyle=orthogonalEdgeStyle;rounded=0;orthogonalLoop=1;jettySize=auto;html=1;entryX=0.5;entryY=1;entryDx=0;entryDy=0;" edge="1" parent="1" source="6Kd2W-e_VP1WlN8fFpik-24" target="6Kd2W-e_VP1WlN8fFpik-25">
          <mxGeometry relative="1" as="geometry" />
        </mxCell>
        <mxCell id="6Kd2W-e_VP1WlN8fFpik-24" value="Подсистема введения административных работ" style="shape=process;whiteSpace=wrap;html=1;backgroundOutline=1;size=0.2222222222222222;direction=south;" vertex="1" parent="1">
          <mxGeometry x="472" y="447" width="130" height="90" as="geometry" />
        </mxCell>
        <mxCell id="6Kd2W-e_VP1WlN8fFpik-29" style="edgeStyle=orthogonalEdgeStyle;rounded=0;orthogonalLoop=1;jettySize=auto;html=1;entryX=0.5;entryY=0;entryDx=0;entryDy=0;" edge="1" parent="1" source="6Kd2W-e_VP1WlN8fFpik-25" target="6Kd2W-e_VP1WlN8fFpik-3">
          <mxGeometry relative="1" as="geometry" />
        </mxCell>
        <mxCell id="6Kd2W-e_VP1WlN8fFpik-25" value="Работа" style="rounded=0;whiteSpace=wrap;html=1;" vertex="1" parent="1">
          <mxGeometry x="477" y="260" width="120" height="60" as="geometry" />
        </mxCell>
        <mxCell id="6Kd2W-e_VP1WlN8fFpik-27" value="Публикация работ/Изменение баллов за работу/Удаление или добавление участников" style="text;html=1;align=center;verticalAlign=middle;whiteSpace=wrap;rounded=0;" vertex="1" parent="1">
          <mxGeometry x="330" y="560" width="170" height="50" as="geometry" />
        </mxCell>
        <mxCell id="6Kd2W-e_VP1WlN8fFpik-30" value="Баллы за работу" style="text;html=1;align=center;verticalAlign=middle;whiteSpace=wrap;rounded=0;" vertex="1" parent="1">
          <mxGeometry x="372" y="300" width="60" height="30" as="geometry" />
        </mxCell>
        <mxCell id="6Kd2W-e_VP1WlN8fFpik-37" style="edgeStyle=orthogonalEdgeStyle;rounded=0;orthogonalLoop=1;jettySize=auto;html=1;entryX=0.5;entryY=0;entryDx=0;entryDy=0;" edge="1" parent="1" source="6Kd2W-e_VP1WlN8fFpik-33" target="6Kd2W-e_VP1WlN8fFpik-36">
          <mxGeometry relative="1" as="geometry" />
        </mxCell>
        <mxCell id="6Kd2W-e_VP1WlN8fFpik-33" value="Подсистема жалоб/предложений" style="shape=process;whiteSpace=wrap;html=1;backgroundOutline=1;size=0.2222222222222222;direction=south;" vertex="1" parent="1">
          <mxGeometry x="890" y="240" width="130" height="90" as="geometry" />
        </mxCell>
        <mxCell id="6Kd2W-e_VP1WlN8fFpik-35" value="Подача жалоб или предложений" style="text;html=1;align=center;verticalAlign=middle;whiteSpace=wrap;rounded=0;" vertex="1" parent="1">
          <mxGeometry x="810" y="130" width="90" height="40" as="geometry" />
        </mxCell>
        <mxCell id="6Kd2W-e_VP1WlN8fFpik-36" value="Жалобы/Предложения" style="rounded=0;whiteSpace=wrap;html=1;" vertex="1" parent="1">
          <mxGeometry x="895" y="387" width="120" height="60" as="geometry" />
        </mxCell>
        <mxCell id="6Kd2W-e_VP1WlN8fFpik-39" value="Просмотр жалоб или предложений" style="text;html=1;align=center;verticalAlign=middle;whiteSpace=wrap;rounded=0;" vertex="1" parent="1">
          <mxGeometry x="870" y="530" width="60" height="30" as="geometry" />
        </mxCell>
        <mxCell id="6Kd2W-e_VP1WlN8fFpik-42" value="" style="group" vertex="1" connectable="0" parent="1">
          <mxGeometry x="-190" y="387" width="155" height="60" as="geometry" />
        </mxCell>
        <mxCell id="6Kd2W-e_VP1WlN8fFpik-11" value="Документы &lt;br&gt;студента" style="rounded=0;whiteSpace=wrap;html=1;" vertex="1" parent="6Kd2W-e_VP1WlN8fFpik-42">
          <mxGeometry x="35" width="120" height="60" as="geometry" />
        </mxCell>
        <mxCell id="6Kd2W-e_VP1WlN8fFpik-40" value="D1" style="rounded=0;whiteSpace=wrap;html=1;" vertex="1" parent="6Kd2W-e_VP1WlN8fFpik-42">
          <mxGeometry width="35" height="60" as="geometry" />
        </mxCell>
        <mxCell id="6Kd2W-e_VP1WlN8fFpik-50" value="" style="group" vertex="1" connectable="0" parent="1">
          <mxGeometry x="184" y="424" width="155" height="60" as="geometry" />
        </mxCell>
        <mxCell id="6Kd2W-e_VP1WlN8fFpik-7" value="База данных студентов&amp;nbsp;" style="rounded=0;whiteSpace=wrap;html=1;" vertex="1" parent="6Kd2W-e_VP1WlN8fFpik-50">
          <mxGeometry x="35" width="120" height="60" as="geometry" />
        </mxCell>
        <mxCell id="6Kd2W-e_VP1WlN8fFpik-41" value="D2" style="rounded=0;whiteSpace=wrap;html=1;" vertex="1" parent="6Kd2W-e_VP1WlN8fFpik-50">
          <mxGeometry width="35" height="60" as="geometry" />
        </mxCell>
        <mxCell id="6Kd2W-e_VP1WlN8fFpik-51" value="D3" style="rounded=0;whiteSpace=wrap;html=1;" vertex="1" parent="1">
          <mxGeometry x="638" y="390" width="35" height="60" as="geometry" />
        </mxCell>
        <mxCell id="6Kd2W-e_VP1WlN8fFpik-52" value="D4" style="rounded=0;whiteSpace=wrap;html=1;" vertex="1" parent="1">
          <mxGeometry x="860" y="387" width="35" height="60" as="geometry" />
        </mxCell>
        <mxCell id="6Kd2W-e_VP1WlN8fFpik-53" value="1.4" style="text;html=1;align=center;verticalAlign=middle;whiteSpace=wrap;rounded=0;" vertex="1" parent="1">
          <mxGeometry x="940" y="241" width="30" height="20" as="geometry" />
        </mxCell>
        <mxCell id="6Kd2W-e_VP1WlN8fFpik-54" value="1.3" style="text;html=1;align=center;verticalAlign=middle;whiteSpace=wrap;rounded=0;" vertex="1" parent="1">
          <mxGeometry x="522" y="453" width="30" height="10" as="geometry" />
        </mxCell>
        <mxCell id="6Kd2W-e_VP1WlN8fFpik-55" value="1.2" style="text;html=1;align=center;verticalAlign=middle;whiteSpace=wrap;rounded=0;" vertex="1" parent="1">
          <mxGeometry x="264" y="246" width="30" height="20" as="geometry" />
        </mxCell>
        <mxCell id="6Kd2W-e_VP1WlN8fFpik-56" value="1.1" style="text;html=1;align=center;verticalAlign=middle;whiteSpace=wrap;rounded=0;" vertex="1" parent="1">
          <mxGeometry x="-107.5" y="210" width="25" height="20" as="geometry" />
        </mxCell>
      </root>
    </mxGraphModel>
  </diagram>
</mxfile>
